# File created by Blade
# Date/Time:  Wed Jan 21 16:33:30 2015
# Frame Rate: 120.000 fps
#------------------------------------------------------
:FULLY-SPECIFIED
:DEGREES
521
root 25.112736 4.671434 -25.444781 -49.976622 106.210002 49.777781
Spine 7.697178 -6.103694 -11.907256
Head 22.339532 -6.323398 -0.399747
LeftShoulder 10.024202 -41.090797 3.327021
LeftArm 41.443576 -47.946919 -73.724835
LeftForeArm 22.155985 0.000000 152.510663
LeftHand -4.263128 -0.000000 64.970256
LeftHandThumb1 -26.253704 0.000000 33.147579
RightShoulder -0.424868 7.454897 1.332679
RightArm 93.600033 49.134715 115.994963
RightForeArm -68.247707 -0.000000 149.533624
RightHand -8.230087 -0.000000 -50.175933
RightHandThumb1 -24.326973 -0.000000 -32.862282
LeftUpLeg -52.198748 -6.740082 -10.137407
LeftLeg 142.583793 -0.000000 -0.000000
LeftFoot -1.217087 25.421715 2.014153
LeftToeBase 24.737886 -0.000000 -0.000000
RightUpLeg -42.217383 -3.520153 -13.216259
RightLeg 139.079493 -0.000000 -0.000000
RightFoot -6.520943 -21.423139 8.389916
RightToeBase 23.321081 -0.000000 -0.000000
522
root 25.121196 4.668075 -25.428478 -50.581605 106.051320 48.988907
Spine 7.306606 -6.078737 -11.872984
Head 22.531004 -6.174200 -0.624910
LeftShoulder 9.792922 -41.070235 3.549962
LeftArm 42.335817 -48.327667 -73.486132
LeftForeArm 22.297429 -0.000000 151.965480
LeftHand -4.098989 -0.000000 65.402651
LeftHandThumb1 -26.253704 0.000000 33.147579
RightShoulder -0.444562 7.551849 0.924088
RightArm 93.810445 49.323680 115.824362
RightForeArm -69.037076 0.000000 149.308644
RightHand -8.626456 0.000000 -50.875678
RightHandThumb1 -24.326973 -0.000000 -32.862282
LeftUpLeg -52.315807 -6.652903 -10.195363
LeftLeg 142.597860 -0.000000 -0.000000
LeftFoot -1.262643 25.532378 1.978482
LeftToeBase 24.723524 -0.000000 -0.000000
RightUpLeg -42.597853 -3.362656 -13.208071
RightLeg 139.199872 -0.000000 -0.000000
RightFoot -6.395273 -21.386062 8.345118
RightToeBase 23.219505 -0.000000 -0.000000
523
root 25.127330 4.664610 -25.413503 -51.273996 105.858931 48.135519
Spine 6.947050 -6.000417 -11.824353
Head 22.716862 -6.036324 -0.822308
LeftShoulder 9.373096 -40.861678 4.024504
LeftArm 43.422179 -48.669243 -73.585483
LeftForeArm 22.634723 -0.000000 151.459073
LeftHand -4.031224 -0.000000 65.926813
LeftHandThumb1 -26.253704 0.000000 33.147579
RightShoulder -0.517001 7.569932 0.514296
RightArm 94.055211 49.471391 115.686773
RightForeArm -69.884110 0.000000 148.988571
RightHand -9.544547 -0.000000 -52.982877
RightHandThumb1 -24.326973 -0.000000 -32.862282
LeftUpLeg -52.391249 -6.541310 -10.255629
LeftLeg 142.599907 -0.000000 -0.000000
LeftFoot -1.333228 25.606874 1.947272
LeftToeBase 24.766453 -0.000000 -0.000000
RightUpLeg -42.951034 -3.145618 -13.192509
RightLeg 139.288897 -0.000000 -0.000000
RightFoot -6.306898 -21.337372 8.208995
RightToeBase 23.437350 -0.000000 -0.000000
524
root 25.132682 4.663571 -25.397458 -51.805710 105.668496 47.449344
Spine 6.594951 -5.978293 -11.729025
Head 22.903468 -5.828991 -0.987114
LeftShoulder 9.021959 -40.993433 4.501568
LeftArm 43.835243 -49.087052 -73.268852
LeftForeArm 22.989188 -0.000000 150.993694
LeftHand -4.105708 -0.000000 66.635483
LeftHandThumb1 -26.253704 0.000000 33.147579
RightShoulder -0.562827 7.566834 0.146909
RightArm 94.474662 49.654772 115.700840
RightForeArm -70.193919 -0.000000 148.721633
RightHand -9.605684 -0.000000 -53.308647
RightHandThumb1 -24.326973 -0.000000 -32.862282
LeftUpLeg -52.448195 -6.459380 -10.290497
LeftLeg 142.581500 -0.000000 -0.000000
LeftFoot -1.380087 25.700418 1.994893
LeftToeBase 24.735433 -0.000000 -0.000000
RightUpLeg -43.272915 -2.971283 -13.112375
RightLeg 139.377913 -0.000000 -0.000000
RightFoot -6.230671 -21.326682 8.129294
RightToeBase 23.554184 -0.000000 -0.000000
525
root 25.143855 4.660767 -25.380544 -52.377830 105.509474 46.646735
Spine 6.141987 -5.970750 -11.697437
Head 23.072809 -5.605876 -1.120781
LeftShoulder 8.849320 -41.912640 4.719116
LeftArm 43.137485 -49.334428 -71.954105
LeftForeArm 23.153544 -0.000000 150.474063
LeftHand -3.984317 -0.000000 67.091366
LeftHandThumb1 -26.253704 0.000000 33.147579
RightShoulder -0.626865 7.534956 -0.229867
RightArm 95.017490 49.823376 115.937838
RightForeArm -70.245105 0.000000 148.486441
RightHand -9.388287 -0.000000 -52.935463
RightHandThumb1 -24.326973 -0.000000 -32.862282
LeftUpLeg -52.580625 -6.390171 -10.346022
LeftLeg 142.570343 -0.000000 -0.000000
LeftFoot -1.384820 25.779986 2.239668
LeftToeBase 25.109986 -0.000000 -0.000000
RightUpLeg -43.675039 -2.814603 -13.077730
RightLeg 139.522827 -0.000000 -0.000000
RightFoot -6.215943 -21.286845 8.033629
RightToeBase 23.617561 -0.000000 -0.000000
